<svg width="24" height="24" viewBox="0 0 24 24" fill="none" xmlns="http://www.w3.org/2000/svg">
<g clip-path="url(#clip0_214_6788)">
<path d="M11.9998 5.32C13.0547 5.32 13.9098 4.46486 13.9098 3.41C13.9098 2.35514 13.0547 1.5 11.9998 1.5C10.945 1.5 10.0898 2.35514 10.0898 3.41C10.0898 4.46486 10.945 5.32 11.9998 5.32Z" stroke="#101010" stroke-width="2" stroke-miterlimit="10"/>
<path d="M11.9998 13.9098C13.0547 13.9098 13.9098 13.0547 13.9098 11.9998C13.9098 10.945 13.0547 10.0898 11.9998 10.0898C10.945 10.0898 10.0898 10.945 10.0898 11.9998C10.0898 13.0547 10.945 13.9098 11.9998 13.9098Z" stroke="#101010" stroke-width="2" stroke-miterlimit="10"/>
<path d="M11.9998 22.5002C13.0547 22.5002 13.9098 21.645 13.9098 20.5902C13.9098 19.5353 13.0547 18.6802 11.9998 18.6802C10.945 18.6802 10.0898 19.5353 10.0898 20.5902C10.0898 21.645 10.945 22.5002 11.9998 22.5002Z" stroke="#101010" stroke-width="2" stroke-miterlimit="10"/>
</g>
<defs>
<clipPath id="clip0_214_6788">
<rect width="24" height="24" fill="white"/>
</clipPath>
</defs>
</svg>
