<svg width="24" height="24" viewBox="0 0 24 24" fill="none" xmlns="http://www.w3.org/2000/svg">
<g clip-path="url(#clip0_324_1115)">
<g clip-path="url(#clip1_324_1115)">
<path d="M19.6404 9.14C19.6404 15.82 12.0004 22.5 12.0004 22.5C12.0004 22.5 4.36035 15.82 4.36035 9.14C4.36035 7.11375 5.16528 5.17048 6.59806 3.7377C8.03083 2.30493 9.9741 1.5 12.0004 1.5C14.0266 1.5 15.9699 2.30493 17.4026 3.7377C18.8354 5.17048 19.6404 7.11375 19.6404 9.14Z" stroke="#3A54DA" stroke-width="2" stroke-miterlimit="10"/>
<path d="M12.0006 11.9998C13.5802 11.9998 14.8606 10.7193 14.8606 9.13979C14.8606 7.56025 13.5802 6.27979 12.0006 6.27979C10.4211 6.27979 9.14062 7.56025 9.14062 9.13979C9.14062 10.7193 10.4211 11.9998 12.0006 11.9998Z" stroke="#3A54DA" stroke-width="2" stroke-miterlimit="10"/>
</g>
</g>
<defs>
<clipPath id="clip0_324_1115">
<rect width="24" height="24" fill="white"/>
</clipPath>
<clipPath id="clip1_324_1115">
<rect width="24" height="24" fill="white"/>
</clipPath>
</defs>
</svg>
