<svg width="46" height="48" viewBox="0 0 46 48" fill="none" xmlns="http://www.w3.org/2000/svg">
<path d="M28.929 20.9145C28.392 21.5877 28.5758 22.1222 29.5472 23.2972C30.8578 24.4875 31.5488 24.8045 32.6957 24.9859L44.5009 20.1881C45.344 19.9571 44.7288 19.1333 43.7295 17.9892C42.7298 16.8457 41.5773 15.8856 40.7341 16.1167L28.929 20.9145Z" fill="#A5A5A5" stroke="#A5A5A5"/>
<path d="M28.9403 28.2434C28.1151 27.9975 27.6883 28.3679 26.962 29.7084C26.3487 31.3692 26.3133 32.1285 26.5742 33.26L35.4408 42.4122C35.9706 43.1077 36.5043 42.2289 37.1914 40.8741C37.8778 39.5192 38.3368 38.0911 37.807 37.3956L28.9403 28.2434Z" fill="#A5A5A5" stroke="#A5A5A5"/>
<path d="M22.6953 33.2241C22.5156 32.3819 21.9859 32.1849 20.4613 32.1902C18.7097 32.4481 18.0264 32.7811 17.1584 33.5525L13.3771 45.7214C13.0207 46.5197 14.0478 46.5668 15.5661 46.5203C17.0843 46.4731 18.5576 46.1913 18.914 45.393L22.6953 33.2241Z" fill="#A5A5A5" stroke="#A5A5A5"/>
<path d="M16.6089 28.9559C17.1968 28.3267 17.0553 27.7795 16.1786 26.5322C14.9648 25.2432 14.3007 24.8733 13.1714 24.6029L1.02785 28.4647C0.169202 28.6292 0.718307 29.4985 1.62517 30.7171C2.53257 31.9352 3.60668 32.9822 4.46533 32.8177L16.6089 28.9559Z" fill="#A5A5A5" stroke="#A5A5A5"/>
<path d="M14.3482 21.0488C15.3958 21.4201 15.9192 21.0996 16.783 19.8226C17.4929 18.1995 17.5091 17.4224 17.1386 16.2196L5.63899 5.52533C4.94636 4.73325 4.30752 5.56224 3.49343 6.85951C2.68026 8.15713 2.15595 9.56251 2.8486 10.3546L14.3482 21.0488Z" fill="#A5A5A5" stroke="#A5A5A5"/>
<path d="M19.5 25.2985C19.5183 27.0982 20.0016 27.7107 21.5 28.2985C23.2689 28.4569 24.0026 28.0415 25 26.7985L31 3.29854C31.5 1.79936 30.5 1.29936 29 0.798539C27.5 0.299316 26 0.299335 25.5 1.79854L19.5 25.2985Z" fill="#3A54DA" stroke="#3A54DA"/>
</svg>
