<svg width="24" height="24" viewBox="0 0 24 24" fill="none" xmlns="http://www.w3.org/2000/svg">
<g clip-path="url(#clip0_324_2870)">
<g clip-path="url(#clip1_324_2870)">
<path d="M11.9995 12.9795C15.1641 12.9795 17.7295 10.4141 17.7295 7.24953C17.7295 4.08494 15.1641 1.51953 11.9995 1.51953C8.83494 1.51953 6.26953 4.08494 6.26953 7.24953C6.26953 10.4141 8.83494 12.9795 11.9995 12.9795Z" stroke="#5D5D5D" stroke-width="2" stroke-miterlimit="10"/>
<path d="M1.5 23.48L1.87 21.43C2.3071 19.0625 3.55974 16.9229 5.41031 15.3828C7.26088 13.8428 9.59246 12.9997 12 13C14.4104 13.0006 16.7443 13.8465 18.5952 15.3905C20.4462 16.9345 21.6971 19.0788 22.13 21.45L22.5 23.5" stroke="#5D5D5D" stroke-width="2" stroke-miterlimit="10"/>
</g>
</g>
<defs>
<clipPath id="clip0_324_2870">
<rect width="24" height="24" fill="white"/>
</clipPath>
<clipPath id="clip1_324_2870">
<rect width="24" height="24" fill="white"/>
</clipPath>
</defs>
</svg>
